# File created by Blade
# Date/Time:  Wed Jan 21 17:57:11 2015
# Frame Rate: 120.000 fps
#------------------------------------------------------
:FULLY-SPECIFIED
:DEGREES
545
root 19.762872 28.975246 -16.176949 -94.200591 1.873587 -179.767232
Spine 64.931213 2.641255 -0.658719
Head 190.501422 -0.518245 183.933445
LeftShoulder 29.743243 -58.586358 11.140677
LeftArm 9.193472 0.605926 -2.376121
LeftForeArm 53.273691 0.000000 84.535540
LeftHand -1.645880 -0.000000 36.136031
LeftHandThumb1 -26.253704 0.000000 33.147579
RightShoulder 18.901718 20.649447 -33.983487
RightArm -5.013018 43.219707 -1.996848
RightForeArm -69.973269 0.000000 92.438165
RightHand -4.722597 -0.000000 -29.127408
RightHandThumb1 -24.326973 -0.000000 -32.862282
LeftUpLeg -84.822856 34.093489 2.134256
LeftLeg -5.967007 -0.000000 0.000000
LeftFoot -13.540308 16.039164 -23.964234
LeftToeBase 33.169492 -0.000000 -0.000000
RightUpLeg -90.470371 -33.613157 3.400166
RightLeg -5.205222 -0.000000 0.000000
RightFoot -7.945420 -1.553700 33.007572
RightToeBase 29.197603 -0.000000 -0.000000
546
root 19.759974 28.973335 -16.174948 -94.091048 1.858668 -179.766644
Spine 64.987807 2.639108 -0.685680
Head 190.556141 -0.603120 183.937559
LeftShoulder 29.617654 -58.666281 11.338024
LeftArm 8.977185 0.393931 -2.349939
LeftForeArm 53.266353 -0.000000 84.876224
LeftHand -1.743284 -0.000000 36.072276
LeftHandThumb1 -26.253704 0.000000 33.147579
RightShoulder 18.804531 20.816772 -34.025570
RightArm -5.185539 43.326959 -1.998096
RightForeArm -69.943693 0.000000 92.671278
RightHand -4.686703 -0.000000 -29.107440
RightHandThumb1 -24.326973 -0.000000 -32.862282
LeftUpLeg -84.921094 34.093454 2.136450
LeftLeg -5.972106 -0.000000 0.000000
LeftFoot -13.570920 16.080769 -23.940871
LeftToeBase 33.175669 -0.000000 -0.000000
RightUpLeg -90.597115 -33.610391 3.494390
RightLeg -5.225088 -0.000000 0.000000
RightFoot -7.962858 -1.583715 33.051694
RightToeBase 29.260002 -0.000000 -0.000000
547
root 19.760031 28.971569 -16.172875 -93.942774 1.845371 -179.761026
Spine 65.021229 2.661298 -0.720757
Head 190.676693 -0.609727 183.979458
LeftShoulder 29.521736 -58.808148 11.528423
LeftArm 8.714912 0.213205 -2.334315
LeftForeArm 53.262523 0.000000 85.291961
LeftHand -1.797345 -0.000000 35.858667
LeftHandThumb1 -26.253704 0.000000 33.147579
RightShoulder 18.668803 20.876156 -34.001071
RightArm -5.280555 43.545537 -2.065771
RightForeArm -69.987209 0.000000 92.934465
RightHand -4.803498 -0.000000 -28.930536
RightHandThumb1 -24.326973 -0.000000 -32.862282
LeftUpLeg -85.038871 34.103419 2.143646
LeftLeg -5.993394 -0.000000 0.000000
LeftFoot -13.580084 16.148749 -23.931554
LeftToeBase 33.139861 -0.000000 -0.000000
RightUpLeg -90.771816 -33.591776 3.613700
RightLeg -5.245540 -0.000000 0.000000
RightFoot -7.966188 -1.622276 33.010683
RightToeBase 29.216973 -0.000000 -0.000000
548
root 19.758366 28.971425 -16.168696 -93.776667 1.841590 -179.771662
Spine 65.017137 2.660636 -0.781442
Head 190.786378 -0.638448 184.014855
LeftShoulder 29.423325 -58.931569 11.722888
LeftArm 8.444591 0.056175 -2.294650
LeftForeArm 53.203498 -0.000000 85.689367
LeftHand -1.832847 -0.000000 35.777481
LeftHandThumb1 -26.253704 0.000000 33.147579
RightShoulder 18.531334 21.090559 -34.041904
RightArm -5.342352 43.652551 -1.908332
RightForeArm -70.036604 0.000000 93.208445
RightHand -4.829917 -0.000000 -28.878391
RightHandThumb1 -24.326973 -0.000000 -32.862282
LeftUpLeg -85.179061 34.093865 2.149553
LeftLeg -5.991109 -0.000000 0.000000
LeftFoot -13.637327 16.203662 -23.994563
LeftToeBase 33.152592 -0.000000 -0.000000
RightUpLeg -90.987400 -33.589710 3.730622
RightLeg -5.242397 -0.000000 0.000000
RightFoot -7.937941 -1.597965 33.039375
RightToeBase 29.305960 -0.000000 -0.000000
549
root 19.756629 28.969526 -16.168801 -93.617139 1.849307 -179.768926
Spine 65.056020 2.689483 -0.827923
Head 191.014886 -0.782378 183.961301
LeftShoulder 29.365519 -59.169991 11.941073
LeftArm 8.064278 -0.080221 -2.368998
LeftForeArm 53.221182 0.000000 86.178351
LeftHand -1.572865 -0.000000 35.049330
LeftHandThumb1 -26.253704 0.000000 33.147579
RightShoulder 18.390146 21.324101 -34.092313
RightArm -5.530724 43.747111 -1.839957
RightForeArm -70.029387 -0.000000 93.517009
RightHand -4.864559 -0.000000 -28.873728
RightHandThumb1 -24.326973 -0.000000 -32.862282
LeftUpLeg -85.320935 34.102622 2.107469
LeftLeg -6.001693 -0.000000 0.000000
LeftFoot -13.654193 16.245442 -23.974109
LeftToeBase 33.102182 -0.000000 -0.000000
RightUpLeg -91.182769 -33.575153 3.840397
RightLeg -5.243334 -0.000000 0.000000
RightFoot -7.966488 -1.699382 32.967240
RightToeBase 29.237617 -0.000000 -0.000000
550
root 19.755379 28.968136 -16.170606 -93.448044 1.840237 -179.758668
Spine 65.094187 2.710497 -0.842679
Head 191.214918 -0.796273 183.988458
LeftShoulder 29.304256 -59.413636 12.143713
LeftArm 7.693318 -0.224552 -2.446193
LeftForeArm 53.244734 -0.000000 86.641920
LeftHand -1.884945 -0.000000 35.240311
LeftHandThumb1 -26.253704 0.000000 33.147579
RightShoulder 18.256623 21.434868 -34.151307
RightArm -5.748437 43.940008 -1.886523
RightForeArm -70.022552 -0.000000 93.824298
RightHand -4.924420 0.000000 -28.806083
RightHandThumb1 -24.326973 -0.000000 -32.862282
LeftUpLeg -85.473548 34.120811 2.068131
LeftLeg -6.013795 -0.000000 0.000000
LeftFoot -13.713279 16.246554 -24.010475
LeftToeBase 33.121698 -0.000000 -0.000000
RightUpLeg -91.387340 -33.550143 3.987858
RightLeg -5.276612 -0.000000 0.000000
RightFoot -7.908568 -1.676200 32.944690
RightToeBase 29.243083 -0.000000 -0.000000
551
root 19.754599 28.965639 -16.173702 -93.295754 1.813535 -179.740831
Spine 65.166532 2.736878 -0.855449
Head 191.522787 -0.938821 183.950123
LeftShoulder 29.059171 -59.542081 12.470218
LeftArm 7.460853 -0.486056 -2.457917
LeftForeArm 53.222836 0.000000 87.041637
LeftHand -1.971159 0.000000 35.200053
LeftHandThumb1 -26.253704 0.000000 33.147579
RightShoulder 18.148769 21.705286 -34.185436
RightArm -6.007835 44.017087 -1.905605
RightForeArm -70.013907 -0.000000 94.135382
RightHand -4.994673 -0.000000 -28.743187
RightHandThumb1 -24.326973 -0.000000 -32.862282
LeftUpLeg -85.604975 34.148020 2.055624
LeftLeg -6.026789 -0.000000 0.000000
LeftFoot -13.727301 16.248354 -23.988529
LeftToeBase 33.009460 -0.000000 -0.000000
RightUpLeg -91.522112 -33.523782 4.089899
RightLeg -5.320644 -0.000000 0.000000
RightFoot -7.951587 -1.795445 33.051123
RightToeBase 29.206094 -0.000000 -0.000000
552
root 19.753093 28.963882 -16.177250 -93.143115 1.770582 -179.735609
Spine 65.233242 2.694195 -0.880481
Head 191.780307 -0.999703 183.848734
LeftShoulder 28.837196 -59.728125 12.738249
LeftArm 7.160761 -0.652999 -2.441665
LeftForeArm 53.206839 0.000000 87.471654
LeftHand -2.054736 -0.000000 35.044157
LeftHandThumb1 -26.253704 0.000000 33.147579
RightShoulder 18.036629 21.995387 -34.218933
RightArm -6.095191 44.113377 -1.860372
RightForeArm -70.024948 -0.000000 94.415538
RightHand -5.052143 -0.000000 -28.728167
RightHandThumb1 -24.326973 -0.000000 -32.862282
LeftUpLeg -85.752702 34.159649 2.036493
LeftLeg -6.039906 -0.000000 0.000000
LeftFoot -13.796956 16.184826 -24.194016
LeftToeBase 32.977702 -0.000000 -0.000000
RightUpLeg -91.676695 -33.511829 4.255527
RightLeg -5.387191 -0.000000 0.000000
RightFoot -7.899993 -1.761894 33.052699
RightToeBase 29.240458 -0.000000 -0.000000
553
root 19.750793 28.960560 -16.181354 -93.008227 1.727110 -179.726458
Spine 65.316410 2.682390 -0.860526
Head 192.075898 -0.907892 183.870213
LeftShoulder 28.729987 -59.899068 12.897833
LeftArm 6.901438 -0.819640 -2.386395
LeftForeArm 53.166797 -0.000000 87.860720
LeftHand -2.143956 0.000000 34.974991
LeftHandThumb1 -26.253704 0.000000 33.147579
RightShoulder 17.962263 22.131397 -34.230273
RightArm -6.366352 44.270970 -2.049906
RightForeArm -69.922845 -0.000000 94.687859
RightHand -5.088851 -0.000000 -28.663351
RightHandThumb1 -24.326973 -0.000000 -32.862282
LeftUpLeg -85.885555 34.180649 2.019083
LeftLeg -6.046324 -0.000000 0.000000
LeftFoot -13.816157 16.137589 -24.208021
LeftToeBase 32.909580 -0.000000 -0.000000
RightUpLeg -91.792650 -33.503562 4.373185
RightLeg -5.429922 -0.000000 0.000000
RightFoot -7.912601 -1.887986 33.042591
RightToeBase 29.107549 -0.000000 -0.000000
554
root 19.749097 28.956208 -16.188664 -92.884249 1.668534 -179.706897
Spine 65.432053 2.686139 -0.812427
Head 192.444695 -1.085309 183.746787
LeftShoulder 28.570843 -60.101173 13.077728
LeftArm 6.715751 -0.972845 -2.356558
LeftForeArm 53.166054 -0.000000 88.221900
LeftHand -2.324565 -0.000000 34.978849
LeftHandThumb1 -26.253704 0.000000 33.147579
RightShoulder 17.868024 22.356736 -34.288121
RightArm -6.677172 44.403394 -2.168564
RightForeArm -69.818801 -0.000000 95.025801
RightHand -5.119252 -0.000000 -28.529388
RightHandThumb1 -24.326973 -0.000000 -32.862282
LeftUpLeg -85.996542 34.214119 2.018471
LeftLeg -6.071453 -0.000000 0.000000
LeftFoot -13.854550 16.095971 -24.257454
LeftToeBase 32.901231 -0.000000 -0.000000
RightUpLeg -91.905338 -33.486149 4.553769
RightLeg -5.510946 -0.000000 0.000000
RightFoot -7.855140 -1.955466 33.047824
RightToeBase 29.047198 -0.000000 -0.000000
555
root 19.746754 28.949389 -16.194027 -92.768058 1.614890 -179.708084
Spine 65.512822 2.628240 -0.779783
Head 192.687680 -1.112501 183.591990
LeftShoulder 28.438641 -60.209735 13.171408
LeftArm 6.538519 -1.129607 -2.253974
LeftForeArm 53.112653 -0.000000 88.547794
LeftHand -2.250387 0.000000 34.772508
LeftHandThumb1 -26.253704 0.000000 33.147579
RightShoulder 17.677599 22.748352 -34.350362
RightArm -6.631034 44.346825 -1.948206
RightForeArm -69.711023 -0.000000 95.382662
RightHand -5.126857 -0.000000 -28.203965
RightHandThumb1 -24.326973 -0.000000 -32.862282
LeftUpLeg -86.128325 34.232228 1.971279
LeftLeg -6.092616 -0.000000 0.000000
LeftFoot -13.853746 16.005573 -24.297638
LeftToeBase 32.806242 -0.000000 -0.000000
RightUpLeg -91.847905 -33.510555 4.528875
RightLeg -5.698095 -0.000000 0.000000
RightFoot -7.772609 -2.252506 32.993062
RightToeBase 28.687943 -0.000000 -0.000000
556
root 19.741219 28.944447 -16.197779 -92.657960 1.575508 -179.731521
Spine 65.569613 2.550315 -0.781585
Head 192.901761 -1.153284 183.534906
LeftShoulder 28.302041 -60.347972 13.351220
LeftArm 6.279745 -1.222854 -2.240623
LeftForeArm 53.124892 -0.000000 88.881792
LeftHand -2.256591 -0.000000 34.629811
LeftHandThumb1 -26.253704 0.000000 33.147579
RightShoulder 17.497483 22.873497 -34.319748
RightArm -6.376684 44.552813 -1.817577
RightForeArm -69.770062 -0.000000 95.537447
RightHand -5.137240 0.000000 -28.081596
RightHandThumb1 -24.326973 -0.000000 -32.862282
LeftUpLeg -86.248994 34.220334 1.905052
LeftLeg -6.139693 -0.000000 0.000000
LeftFoot -13.836185 15.952910 -24.360137
LeftToeBase 32.763733 -0.000000 -0.000000
RightUpLeg -91.884448 -33.553595 4.598506
RightLeg -5.854394 -0.000000 0.000000
RightFoot -7.616573 -2.489733 33.263149
RightToeBase 28.583755 -0.000000 -0.000000
557
root 19.737451 28.938732 -16.203340 -92.534731 1.540697 -179.751554
Spine 65.599218 2.494925 -0.756941
Head 193.063042 -1.268595 183.423701
LeftShoulder 28.224629 -60.468450 13.444561
LeftArm 6.078719 -1.314245 -2.232039
LeftForeArm 53.192059 -0.000000 89.192070
LeftHand -2.331369 -0.000000 34.551780
LeftHandThumb1 -26.253704 0.000000 33.147579
RightShoulder 17.359774 23.240685 -34.358968
RightArm -6.346475 44.444725 -1.633914
RightForeArm -69.768070 -0.000000 95.772650
RightHand -5.185000 -0.000000 -28.106615
RightHandThumb1 -24.326973 -0.000000 -32.862282
LeftUpLeg -86.449345 34.220677 1.710867
LeftLeg -6.183035 -0.000000 0.000000
LeftFoot -13.729972 15.854229 -24.377876
LeftToeBase 32.600334 -0.000000 -0.000000
RightUpLeg -91.948062 -33.589739 4.674696
RightLeg -5.958861 -0.000000 0.000000
RightFoot -7.584501 -2.717513 33.412287
RightToeBase 28.414035 -0.000000 -0.000000
